<svg height="512" viewBox="0 0 512 512" width="512" xmlns="http://www.w3.org/2000/svg"><g id="Flat"><path d="m64 24.0001v-.0001h384v.0001a95.9999 95.9999 0 0 1 -95.9999 95.9999h-192.0002a95.9999 95.9999 0 0 1 -95.9999-95.9999z" fill="#8acce7"/><path d="m232 120h48v64h-48z" fill="#2d80b3"/><path d="m362.60377 217.825-2.64687-4.81249a56 56 0 0 0 -49.06809-29.01251h-109.77762a56 56 0 0 0 -49.06809 29.01255l-2.64687 4.81249a560.62313 560.62313 0 0 0 -69.39623 270.17481v.00015h352v-.00014a560.62314 560.62314 0 0 0 -69.39623-270.17486z" fill="#379ec3"/><path d="m368 336c0 2.68994-.09 5.35986-.29 8a111.50924 111.50924 0 0 1 -18.96 54.79 112.357 112.357 0 0 1 -29.96 29.96 111.50682 111.50682 0 0 1 -54.79 18.96c-2.64.2-5.31.29-8 .29s-5.36-.09009-8-.29a111.50682 111.50682 0 0 1 -54.79-18.96 112.357 112.357 0 0 1 -29.96-29.96 111.50924 111.50924 0 0 1 -18.96-54.79c-.2-2.64014-.29-5.31006-.29-8s.09-5.35986.29-8a111.50924 111.50924 0 0 1 18.96-54.79 112.357 112.357 0 0 1 29.96-29.96 111.50682 111.50682 0 0 1 54.79-18.96c2.64-.2002 5.31-.29 8-.29s5.36.08984 8 .29a111.50682 111.50682 0 0 1 54.79 18.96 112.357 112.357 0 0 1 29.96 29.96 111.50924 111.50924 0 0 1 18.96 54.79c.2 2.64014.29 5.31006.29 8z" fill="#8acce7"/><path d="m248 272h16v56h-16z" fill="#e44b4d"/><g fill="#2f4054"><circle cx="256" cy="336" r="16"/><path d="m264 224.29v23.71h-16v-23.71c2.64-.2002 5.31-.29 8-.29s5.36.08984 8 .29z"/><path d="m218.93 255.79-13.86 8-11.86-20.54a110.54665 110.54665 0 0 1 13.85-8.01z"/><path d="m183.79 285.07007-8 13.85986-20.55-11.86987a110.53141 110.53141 0 0 1 8.01-13.8501z"/><path d="m168 328v16h-23.71c-.2-2.64014-.29-5.31006-.29-8s.09-5.35986.29-8z"/><path d="m183.79 386.92993-20.54 11.86007a110.53141 110.53141 0 0 1 -8.01-13.8501l20.55-11.86987z"/><path d="m218.93 416.21-11.87 20.55a110.54665 110.54665 0 0 1 -13.85-8.01l11.86-20.54z"/><path d="m264 424v23.71c-2.64.2-5.31.29-8 .29s-5.36-.09009-8-.29v-23.71z"/><path d="m318.79 428.75a110.54665 110.54665 0 0 1 -13.85 8.01l-11.87-20.55 13.86-8z"/><path d="m356.76 384.93994a110.53141 110.53141 0 0 1 -8.01 13.8501l-20.54-11.86011 8-13.85986z"/><path d="m368 336c0 2.68994-.09 5.35986-.29 8h-23.71v-16h23.71c.2 2.64014.29 5.31006.29 8z"/><path d="m356.76 287.06006-20.55 11.86987-8-13.85986 20.54-11.86007a110.53141 110.53141 0 0 1 8.01 13.85006z"/><path d="m318.79 243.25-11.86 20.54-13.86-8 11.87-20.55a110.54665 110.54665 0 0 1 13.85 8.01z"/></g></g></svg>